<svg xmlns="http://www.w3.org/2000/svg" width="512" height="512" viewBox="0 0 512 512"><defs><linearGradient id="g120" x1="78.2843%" y1="21.7157%" x2="21.7157%" y2="78.2843%"><stop offset="0" stop-color="#eef8f3"/><stop offset="1" stop-color="#deeae4"/></linearGradient><linearGradient id="g121" x1="78.2843%" y1="21.7157%" x2="21.7157%" y2="78.2843%"><stop offset="0" stop-color="#9fdd79"/><stop offset="1" stop-color="#4a9a18"/></linearGradient><linearGradient id="g122" x1="78.2843%" y1="21.7157%" x2="21.7157%" y2="78.2843%"><stop offset="0" stop-color="#8b91a1"/><stop offset="1" stop-color="#30384d"/></linearGradient><linearGradient id="g123" x1="78.2843%" y1="21.7157%" x2="21.7157%" y2="78.2843%"><stop offset="0" stop-color="#a6adbc"/><stop offset="1" stop-color="#535c70"/></linearGradient></defs><rect x="0" y="0" width="512" height="512" rx="72" fill="#dce9f5"/><ellipse cx="256" cy="400" rx="118" ry="16" fill="#1a2233" opacity="0.1"/><path d="M 232 148 L 232 212 L 172 330 C 164 350 178 370 200 370 L 312 370 C 334 370 348 350 340 330 L 280 212 L 280 148 Z" fill="url(#g120)" stroke="#2b3346" stroke-width="9" stroke-linecap="round" stroke-linejoin="round"/><path d="M 184 322 C 220 294 292 294 328 322 L 340 330 C 348 350 334 370 312 370 L 200 370 C 178 370 164 350 172 330 Z" fill="url(#g121)" opacity="0.96"/><circle cx="210" cy="344" r="8" fill="#c6f26b" opacity="1"/><circle cx="244" cy="356" r="6" fill="#c6f26b" opacity="1"/><circle cx="280" cy="340" r="7" fill="#c6f26b" opacity="1"/><circle cx="308" cy="356" r="5" fill="#c6f26b" opacity="1"/><circle cx="226" cy="328" r="4" fill="#c6f26b" opacity="1"/><path d="M 240 172 L 240 212 L 190 316 L 178 310 Z" fill="#ffffff" opacity="0.5"/><rect x="220" y="132" width="84" height="24" rx="6" fill="url(#g122)" stroke="#2b3346" stroke-width="9" stroke-linejoin="round"/><rect x="230" y="116" width="64" height="20" rx="5" fill="url(#g123)" stroke="#2b3346" stroke-width="9" stroke-linejoin="round"/></svg>