<svg xmlns="http://www.w3.org/2000/svg" width="512" height="512" viewBox="0 0 512 512"><defs><filter id="ds" x="-30%" y="-30%" width="160%" height="160%"><feDropShadow dx="0" dy="10" stdDeviation="9" flood-color="#000" flood-opacity="0.20"/></filter><filter id="gb" x="-60%" y="-60%" width="220%" height="220%"><feGaussianBlur stdDeviation="18"/></filter></defs><g filter="url(#ds)"><path d="M 256 130 C 190 130 160 190 190 245 C 205 272 218 285 220 310 L 292 310 C 294 285 307 272 322 245 C 352 190 322 130 256 130 Z" fill="#ffd452" stroke="#20232b" stroke-width="13" stroke-linecap="round" stroke-linejoin="round"/><rect x="222" y="310" width="68" height="22" rx="6" fill="#c9cdd4" stroke="#20232b" stroke-width="13" stroke-linejoin="round"/><rect x="228" y="336" width="56" height="20" rx="5" fill="#aeb3bc" stroke="#20232b" stroke-width="13" stroke-linejoin="round"/><path d="M 256 200 L 236 236 L 268 240 L 244 274" fill="none" stroke="#c9971a" stroke-width="10" stroke-linecap="round" stroke-linejoin="round" opacity="1"/><line x1="159.582" y1="111.093" x2="133.87" y2="80.4516" stroke="#ffd452" stroke-width="10" stroke-linecap="round" opacity="1"/><line x1="256" y1="76" x2="256" y2="32" stroke="#ffd452" stroke-width="10" stroke-linecap="round" opacity="1"/><line x1="352.418" y1="111.093" x2="378.13" y2="80.4516" stroke="#ffd452" stroke-width="10" stroke-linecap="round" opacity="1"/></g></svg>