<svg xmlns="http://www.w3.org/2000/svg" width="512" height="512" viewBox="0 0 512 512"><defs><linearGradient id="g109" x1="78.2843%" y1="21.7157%" x2="21.7157%" y2="78.2843%"><stop offset="0" stop-color="#f59c9c"/><stop offset="1" stop-color="#ba4646"/></linearGradient></defs><rect x="0" y="0" width="512" height="512" rx="72" fill="#dce9f5"/><ellipse cx="256" cy="396" rx="120" ry="16" fill="#1a2233" opacity="0.1"/><path d="M 256 176 L 172 152 C 146 182 136 224 146 264 C 166 258 190 262 202 276 C 222 290 234 290 256 276 C 278 290 290 290 310 276 C 322 262 346 258 366 264 C 376 224 366 182 340 152 Z" fill="url(#g109)" stroke="#2b3346" stroke-width="9" stroke-linecap="round" stroke-linejoin="round"/><path d="M 190 176 L 240 186 L 236 206 L 194 200 Z" fill="#ffffff" opacity="0.28"/><polygon points="174,196 220,206 214,238 182,242" fill="#fff" opacity="0.94"/><polygon points="338,196 292,206 298,238 330,242" fill="#fff" opacity="0.94"/><path d="M 256 172 L 246 204 L 266 204 Z" fill="#a8202f" opacity="1"/></svg>