<svg xmlns="http://www.w3.org/2000/svg" width="512" height="512" viewBox="0 0 512 512"><defs><filter id="ds" x="-30%" y="-30%" width="160%" height="160%"><feDropShadow dx="0" dy="10" stdDeviation="9" flood-color="#000" flood-opacity="0.20"/></filter><filter id="gb" x="-60%" y="-60%" width="220%" height="220%"><feGaussianBlur stdDeviation="18"/></filter></defs><g filter="url(#ds)"><path d="M 150 236 C 150 236 190 200 256 200 C 322 200 362 236 362 236 L 362 276 C 362 276 322 312 256 312 C 190 312 150 276 150 276 Z" fill="#2b3a55" stroke="#20232b" stroke-width="13" stroke-linecap="round" stroke-linejoin="round"/><rect x="176" y="220" width="160" height="72" rx="10" fill="#8f97a3" stroke="#20232b" stroke-width="13" stroke-linejoin="round"/><path d="M 210 256 C 210 240 226 232 240 240 C 250 246 250 262 238 268 C 248 262 260 264 262 276" fill="none" stroke="#2b3a55" stroke-width="8" stroke-linecap="round" stroke-linejoin="round" opacity="1"/><path d="M 150 246 L 110 220 L 122 250 L 110 280 L 150 260 Z" fill="#2b3a55" opacity="1"/><path d="M 362 246 L 402 220 L 390 250 L 402 280 L 362 260 Z" fill="#2b3a55" opacity="1"/></g></svg>