<svg xmlns="http://www.w3.org/2000/svg" width="512" height="512" viewBox="0 0 512 512"><defs><linearGradient id="g87" x1="78.2843%" y1="21.7157%" x2="21.7157%" y2="78.2843%"><stop offset="0" stop-color="#4b586e"/><stop offset="1" stop-color="#27344c"/></linearGradient><linearGradient id="g88" x1="78.2843%" y1="21.7157%" x2="21.7157%" y2="78.2843%"><stop offset="0" stop-color="#c2c8d0"/><stop offset="1" stop-color="#787f89"/></linearGradient><linearGradient id="g89" x1="78.2843%" y1="21.7157%" x2="21.7157%" y2="78.2843%"><stop offset="0" stop-color="#4b586e"/><stop offset="1" stop-color="#27344c"/></linearGradient><linearGradient id="g90" x1="78.2843%" y1="21.7157%" x2="21.7157%" y2="78.2843%"><stop offset="0" stop-color="#4b586e"/><stop offset="1" stop-color="#27344c"/></linearGradient></defs><rect x="0" y="0" width="512" height="512" rx="72" fill="#dce9f5"/><ellipse cx="256" cy="400" rx="128" ry="16" fill="#1a2233" opacity="0.1"/><path d="M 146 236 C 146 236 190 196 256 196 C 322 196 366 236 366 236 L 366 280 C 366 280 322 320 256 320 C 190 320 146 280 146 280 Z" fill="url(#g87)" stroke="#2b3346" stroke-width="9" stroke-linecap="round" stroke-linejoin="round"/><rect x="172" y="218" width="168" height="76" rx="10" fill="url(#g88)" stroke="#2b3346" stroke-width="9" stroke-linejoin="round"/><path d="M 180 224 L 320 224 L 320 236 L 180 236 Z" fill="#ffffff" opacity="0.3"/><path d="M 208 256 C 208 238 226 228 242 238 C 254 244 254 264 240 270 C 252 264 266 266 268 280" fill="none" stroke="#2b3a55" stroke-width="8" stroke-linecap="round" stroke-linejoin="round" opacity="1"/><path d="M 146 246 L 100 216 L 114 250 L 100 284 L 146 264 Z" fill="url(#g89)" opacity="1"/><path d="M 366 246 L 412 216 L 398 250 L 412 284 L 366 264 Z" fill="url(#g90)" opacity="1"/></svg>