<svg xmlns="http://www.w3.org/2000/svg" width="512" height="512" viewBox="0 0 512 512"><defs><filter id="ds" x="-30%" y="-30%" width="160%" height="160%"><feDropShadow dx="0" dy="10" stdDeviation="9" flood-color="#000" flood-opacity="0.20"/></filter><filter id="gb" x="-60%" y="-60%" width="220%" height="220%"><feGaussianBlur stdDeviation="18"/></filter></defs><g filter="url(#ds)"><rect x="346" y="224" width="30" height="146" rx="6" fill="#fbf3df" stroke="#20232b" stroke-width="13" stroke-linejoin="round"/><path d="M 337 224 A 24 24 0 0 1 385 224 Z" fill="#2ea88a" stroke="#20232b" stroke-width="13" stroke-linecap="round" stroke-linejoin="round"/><path d="M 361 150 A 22 22 0 1 0 361 194 A 17 17 0 1 1 361 150 Z" fill="#f2c14e" opacity="1"/><rect x="146" y="270" width="220" height="100" rx="8" fill="#fbf3df" stroke="#20232b" stroke-width="13" stroke-linejoin="round"/><path d="M 146 270 A 110 110 0 0 1 366 270 Z" fill="#2ea88a" stroke="#20232b" stroke-width="13" stroke-linecap="round" stroke-linejoin="round"/><path d="M 250 176 A 20 20 0 1 0 250 216 A 15 15 0 1 1 250 176 Z" fill="#f2c14e" opacity="1"/><rect x="170" y="316" width="26" height="54" rx="5" fill="#dcbecf" stroke="#20232b" stroke-width="7" stroke-linejoin="round"/><rect x="316" y="316" width="26" height="54" rx="5" fill="#dcecdf" stroke="#20232b" stroke-width="7" stroke-linejoin="round"/><path d="M 220 300 A 36 36 0 0 1 292 300" fill="none" stroke="#2ea88a" stroke-width="6" stroke-linecap="round" stroke-linejoin="round" opacity="0.55"/></g></svg>