<svg xmlns="http://www.w3.org/2000/svg" width="512" height="512" viewBox="0 0 512 512"><defs><linearGradient id="g8" x1="78.2843%" y1="21.7157%" x2="21.7157%" y2="78.2843%"><stop offset="0" stop-color="#fcf7e9"/><stop offset="1" stop-color="#e2dbc9"/></linearGradient><linearGradient id="g9" x1="78.2843%" y1="21.7157%" x2="21.7157%" y2="78.2843%"><stop offset="0" stop-color="#85d0bc"/><stop offset="1" stop-color="#288a70"/></linearGradient><linearGradient id="g10" x1="78.2843%" y1="21.7157%" x2="21.7157%" y2="78.2843%"><stop offset="0" stop-color="#fadf95"/><stop offset="1" stop-color="#ddb546"/></linearGradient><linearGradient id="g11" x1="78.2843%" y1="21.7157%" x2="21.7157%" y2="78.2843%"><stop offset="0" stop-color="#fcf7e9"/><stop offset="1" stop-color="#e2dbc9"/></linearGradient><linearGradient id="g12" x1="78.2843%" y1="21.7157%" x2="21.7157%" y2="78.2843%"><stop offset="0" stop-color="#85d0bc"/><stop offset="1" stop-color="#288a70"/></linearGradient><linearGradient id="g13" x1="78.2843%" y1="21.7157%" x2="21.7157%" y2="78.2843%"><stop offset="0" stop-color="#fadf95"/><stop offset="1" stop-color="#ddb546"/></linearGradient><linearGradient id="g14" x1="78.2843%" y1="21.7157%" x2="21.7157%" y2="78.2843%"><stop offset="0" stop-color="#ddb1d9"/><stop offset="1" stop-color="#b07aab"/></linearGradient><linearGradient id="g15" x1="78.2843%" y1="21.7157%" x2="21.7157%" y2="78.2843%"><stop offset="0" stop-color="#a5d2d9"/><stop offset="1" stop-color="#6ca2ab"/></linearGradient></defs><rect x="0" y="0" width="512" height="512" rx="72" fill="#dce9f5"/><ellipse cx="256" cy="400" rx="130" ry="18" fill="#1a2233" opacity="0.1"/><rect x="346" y="210" width="30" height="160" rx="6" fill="url(#g8)" stroke="#2b3346" stroke-width="9" stroke-linejoin="round"/><path d="M 337 210 A 24 24 0 0 1 385 210 Z" fill="url(#g9)" stroke="#2b3346" stroke-width="9" stroke-linecap="round" stroke-linejoin="round"/><path d="M 361 132 A 24 24 0 1 0 361 180 A 19 19 0 1 1 361 132 Z" fill="url(#g10)" opacity="1"/><rect x="146" y="258" width="224" height="112" rx="8" fill="url(#g11)" stroke="#2b3346" stroke-width="9" stroke-linejoin="round"/><path d="M 146 258 A 112 112 0 0 1 370 258 Z" fill="url(#g12)" stroke="#2b3346" stroke-width="9" stroke-linecap="round" stroke-linejoin="round"/><path d="M 250 168 A 22 22 0 1 0 250 212 A 17 17 0 1 1 250 168 Z" fill="url(#g13)" opacity="1"/><path d="M 190 320 A 30 40 0 0 1 250 320 L 250 370 L 190 370 Z" fill="url(#g14)" stroke="#2b3346" stroke-width="9" stroke-linecap="round" stroke-linejoin="round"/><path d="M 262 320 A 30 40 0 0 1 322 320 L 322 370 L 262 370 Z" fill="url(#g15)" stroke="#2b3346" stroke-width="9" stroke-linecap="round" stroke-linejoin="round"/><path d="M 160 270 L 340 270 L 340 285 L 160 285 Z" fill="#ffffff" opacity="0.16"/></svg>