<svg xmlns="http://www.w3.org/2000/svg" width="512" height="512" viewBox="0 0 512 512"><defs><linearGradient id="g94" x1="78.2843%" y1="21.7157%" x2="21.7157%" y2="78.2843%"><stop offset="0" stop-color="#95e3ec"/><stop offset="1" stop-color="#3ea3af"/></linearGradient></defs><rect x="0" y="0" width="512" height="512" rx="72" fill="#dce9f5"/><ellipse cx="256" cy="400" rx="120" ry="16" fill="#1a2233" opacity="0.1"/><path d="M 116 306 C 156 264 188 326 230 294 C 272 262 302 326 344 294 C 386 262 406 294 406 294 L 406 348 C 406 348 386 316 344 348 C 302 380 272 316 230 348 C 188 380 156 316 116 348 Z" fill="url(#g94)" stroke="#2b3346" stroke-width="9" stroke-linecap="round" stroke-linejoin="round"/><path d="M 128 254 C 165 220 194 272 230 246 C 268 220 292 270 330 246 C 368 220 386 246 386 246" fill="none" stroke="#bff2f6" stroke-width="9" stroke-linecap="round" stroke-linejoin="round" opacity="0.85"/><circle cx="360" cy="176" r="11" fill="#bff2f6" opacity="1"/><circle cx="388" cy="202" r="7" fill="#bff2f6" opacity="1"/><path d="M 140 300 C 160 282 178 308 200 300 L 200 316 C 178 322 160 300 140 316 Z" fill="#ffffff" opacity="0.4"/></svg>